<svg width="72" height="72" viewBox="0 0 72 72" fill="none" xmlns="http://www.w3.org/2000/svg">
<rect width="72" height="72" rx="7"  fill-opacity="0.3"/>
<path d="M24 22.6667H30.6667C31.0203 22.6667 31.3594 22.8072 31.6095 23.0573C31.8595 23.3073 32 23.6465 32 24.0001C32 24.3537 31.8595 24.6928 31.6095 24.9429C31.3594 25.1929 31.0203 25.3334 30.6667 25.3334H25.3334V30.6667C25.3334 31.0204 25.1929 31.3595 24.9428 31.6096C24.6928 31.8596 24.3536 32.0001 24 32.0001C23.6464 32.0001 23.3073 31.8596 23.0572 31.6096C22.8072 31.3595 22.6667 31.0204 22.6667 30.6667V24.0001C22.6667 23.6465 22.8072 23.3073 23.0572 23.0573C23.3073 22.8072 23.6464 22.6667 24 22.6667ZM22.6667 48.0001C22.6667 48.3537 22.8072 48.6928 23.0572 48.9429C23.3073 49.1929 23.6464 49.3334 24 49.3334H30.6667C31.0203 49.3334 31.3594 49.1929 31.6095 48.9429C31.8595 48.6928 32 48.3537 32 48.0001C32 47.6465 31.8595 47.3073 31.6095 47.0573C31.3594 46.8072 31.0203 46.6667 30.6667 46.6667H25.3334V41.3334C25.3334 40.9798 25.1929 40.6407 24.9428 40.3906C24.6928 40.1406 24.3536 40.0001 24 40.0001C23.6464 40.0001 23.3073 40.1406 23.0572 40.3906C22.8072 40.6407 22.6667 40.9798 22.6667 41.3334V48.0001ZM49.3334 48.0001V41.3334C49.3334 40.9798 49.1929 40.6407 48.9428 40.3906C48.6928 40.1406 48.3536 40.0001 48 40.0001C47.6464 40.0001 47.3073 40.1406 47.0572 40.3906C46.8072 40.6407 46.6667 40.9798 46.6667 41.3334V46.6667H41.3334C40.9797 46.6667 40.6406 46.8072 40.3905 47.0573C40.1405 47.3073 40 47.6465 40 48.0001C40 48.3537 40.1405 48.6928 40.3905 48.9429C40.6406 49.1929 40.9797 49.3334 41.3334 49.3334H48C48.3536 49.3334 48.6928 49.1929 48.9428 48.9429C49.1929 48.6928 49.3334 48.3537 49.3334 48.0001ZM49.3334 24.0001C49.3334 23.6465 49.1929 23.3073 48.9428 23.0573C48.6928 22.8072 48.3536 22.6667 48 22.6667H41.3334C40.9797 22.6667 40.6406 22.8072 40.3905 23.0573C40.1405 23.3073 40 23.6465 40 24.0001C40 24.3537 40.1405 24.6928 40.3905 24.9429C40.6406 25.1929 40.9797 25.3334 41.3334 25.3334H46.6667V30.6667C46.6667 31.0204 46.8072 31.3595 47.0572 31.6096C47.3073 31.8596 47.6464 32.0001 48 32.0001C48.3536 32.0001 48.6928 31.8596 48.9428 31.6096C49.1929 31.3595 49.3334 31.0204 49.3334 30.6667V24.0001ZM43.5494 44.9974C43.8143 44.7634 43.9755 44.4338 43.9975 44.081C44.0195 43.7283 43.9005 43.3812 43.6667 43.1161C42.8457 42.1493 41.8262 41.3706 40.6774 40.833C39.5287 40.2953 38.2776 40.0112 37.0094 40.0001H34.992C33.7234 40.0111 32.472 40.2953 31.323 40.8332C30.174 41.3711 29.1543 42.1502 28.3334 43.1174C28.0993 43.3826 27.9801 43.73 28.0021 44.083C28.0241 44.4361 28.1855 44.766 28.4507 45.0001C28.7159 45.2342 29.0633 45.3533 29.4163 45.3313C29.7694 45.3093 30.0993 45.148 30.3334 44.8827C30.9053 44.2007 31.6175 43.6497 32.4213 43.2673C33.2252 42.8849 34.1019 42.6801 34.992 42.6667H37.0094C37.8991 42.6803 38.7755 42.8851 39.579 43.2672C40.3826 43.6494 41.0946 44.1999 41.6667 44.8814C41.7827 45.0127 41.9234 45.1198 42.0808 45.1967C42.2381 45.2736 42.4091 45.3187 42.584 45.3295C42.7588 45.3403 42.9341 45.3165 43.0997 45.2595C43.2654 45.2025 43.4181 45.1135 43.5494 44.9974ZM41.3334 32.0001C41.3334 33.0549 41.0206 34.0861 40.4345 34.9631C39.8485 35.8402 39.0155 36.5238 38.041 36.9274C37.0665 37.3311 35.9941 37.4367 34.9595 37.2309C33.925 37.0251 32.9747 36.5172 32.2288 35.7713C31.4829 35.0254 30.975 34.0751 30.7692 33.0406C30.5634 32.006 30.669 30.9336 31.0727 29.9591C31.4763 28.9846 32.1599 28.1516 33.037 27.5656C33.914 26.9795 34.9452 26.6667 36 26.6667C37.4145 26.6667 38.7711 27.2287 39.7713 28.2288C40.7715 29.229 41.3334 30.5856 41.3334 32.0001ZM38.6667 32.0001C38.6667 31.4727 38.5103 30.9571 38.2173 30.5186C37.9243 30.08 37.5078 29.7382 37.0205 29.5364C36.5332 29.3346 35.9971 29.2818 35.4798 29.3847C34.9625 29.4875 34.4873 29.7415 34.1144 30.1145C33.7415 30.4874 33.4875 30.9626 33.3846 31.4798C33.2817 31.9971 33.3345 32.5333 33.5363 33.0206C33.7382 33.5078 34.08 33.9243 34.5185 34.2173C34.957 34.5104 35.4726 34.6667 36 34.6667C36.7073 34.6667 37.3855 34.3858 37.8856 33.8857C38.3857 33.3856 38.6667 32.7073 38.6667 32.0001Z" fill="#009D32"/>
</svg>
