<svg width="72" height="72" viewBox="0 0 72 72" fill="none" xmlns="http://www.w3.org/2000/svg">
<rect width="72" height="72" rx="7"  fill-opacity="0.3"/>
<path d="M31.3333 50.6666C32.9335 50.6761 34.5198 50.368 36 49.7599C37.4787 50.3731 39.0659 50.6815 40.6667 50.6666C45.5267 50.6666 49.3333 48.0732 49.3333 44.7612V39.2386C49.3333 35.9266 45.5267 33.3333 40.6667 33.3333C40.4413 33.3333 40.22 33.3439 40 33.3559V27.1106C40 23.8666 36.1933 21.3333 31.3333 21.3333C26.4733 21.3333 22.6667 23.8666 22.6667 27.1106V44.8892C22.6667 48.1332 26.4733 50.6666 31.3333 50.6666ZM46.6667 44.7612C46.6667 46.2932 44.2027 47.9999 40.6667 47.9999C37.1307 47.9999 34.6667 46.2932 34.6667 44.7612V43.5279C36.4723 44.6261 38.5538 45.1862 40.6667 45.1426C42.7796 45.1862 44.861 44.6261 46.6667 43.5279V44.7612ZM40.6667 35.9999C44.2027 35.9999 46.6667 37.7066 46.6667 39.2386C46.6667 40.7706 44.2027 42.4759 40.6667 42.4759C37.1307 42.4759 34.6667 40.7693 34.6667 39.2386C34.6667 37.7079 37.1307 35.9999 40.6667 35.9999ZM31.3333 23.9999C34.8693 23.9999 37.3333 25.6399 37.3333 27.1106C37.3333 28.5813 34.8693 30.2226 31.3333 30.2226C27.7973 30.2226 25.3333 28.5826 25.3333 27.1106C25.3333 25.6386 27.7973 23.9999 31.3333 23.9999ZM25.3333 31.3093C27.1465 32.386 29.225 32.9334 31.3333 32.8893C33.4416 32.9334 35.5202 32.386 37.3333 31.3093V33.7733C35.8802 34.1395 34.5476 34.878 33.4667 35.9159C32.7656 36.0676 32.0506 36.1454 31.3333 36.1479C27.7973 36.1479 25.3333 34.5079 25.3333 33.0373V31.3093ZM25.3333 37.2359C27.1469 38.3116 29.2252 38.8585 31.3333 38.8146C31.5707 38.8146 31.8 38.7853 32.0333 38.7733C32.0135 38.9276 32.0023 39.083 32 39.2386V42.0186C31.776 42.0319 31.56 42.0746 31.3333 42.0746C27.7973 42.0746 25.3333 40.4346 25.3333 38.9626V37.2359ZM25.3333 43.1613C27.1465 44.238 29.225 44.7854 31.3333 44.7413C31.5573 44.7413 31.7773 44.7239 32 44.7133V44.7612C32.0191 45.8963 32.4552 46.9846 33.2253 47.8186C32.6015 47.9364 31.9682 47.9971 31.3333 47.9999C27.7973 47.9999 25.3333 46.3599 25.3333 44.8892V43.1613Z" fill="#0082F4"/>
</svg>
