<svg width="32" height="32" viewBox="0 0 32 32" fill="none" xmlns="http://www.w3.org/2000/svg">
<g clip-path="url(#clip0)">
<path d="M16 0C7.1648 0 0 7.1648 0 16C0 24.8352 7.1648 32 16 32C24.8352 32 32 24.8352 32 16C32.0256 7.1904 24.9024 0.0256 16.0928 0H16ZM16.272 16.5408L14.6048 22.1568H23.5168C23.7664 22.1472 23.9744 22.3424 23.9808 22.5888V22.736L23.2064 25.408C23.136 25.6672 22.896 25.8464 22.624 25.8336H8.9888L11.2736 18.048L8.7168 18.8224L9.2992 17.04L11.856 16.2656L15.072 5.3408C15.1456 5.0816 15.3856 4.9056 15.6544 4.9152H19.1008C19.3504 4.9056 19.5584 5.1008 19.5648 5.3472V5.4944L16.8512 14.72L19.408 13.9456L18.864 15.8048L16.272 16.5408Z" fill="#345D9D"/>
</g>
<defs>
<clipPath id="clip0">
<rect width="32" height="32" fill="white"/>
</clipPath>
</defs>
</svg>
