<svg  width="32" height="32" viewBox="0 0 32 32" fill="none" xmlns="http://www.w3.org/2000/svg">
<path d="M16 0.00323486C24.8352 0.00323486 31.9968 7.16483 31.9968 16C31.9968 24.8352 24.832 31.9968 16 31.9968C7.16797 31.9968 0.00317383 24.8384 0.00317383 16C0.00317383 7.16163 7.16477 0.00323486 16 0.00323486Z" fill="#53AE94"/>
<path d="M17.9745 13.8688V11.488H23.4177V7.86243H8.59846V11.488H14.0417V13.8656C9.61926 14.0672 6.29126 14.944 6.29126 15.9936C6.29126 17.0432 9.61926 17.92 14.0417 18.1248V25.7472H17.9777V18.1248C22.3937 17.92 25.7121 17.0464 25.7121 15.9968C25.7121 14.9472 22.3905 14.0736 17.9745 13.8688ZM17.9745 17.4784C17.8625 17.4848 17.2929 17.5168 16.0225 17.5168C15.0081 17.5168 14.2913 17.488 14.0417 17.4752V17.4784C10.1345 17.3056 7.21606 16.624 7.21606 15.8112C7.21606 14.9984 10.1345 14.3168 14.0417 14.144V16.8C14.2977 16.8192 15.0305 16.8608 16.0417 16.8608C17.2545 16.8608 17.8657 16.8096 17.9777 16.8V14.144C21.8785 14.3168 24.7873 14.9984 24.7873 15.8112C24.7873 16.6208 21.8753 17.3024 17.9745 17.4784Z" fill="white"/>
</svg>
