<svg width="22" height="20" viewBox="0 0 22 20" xmlns="http://www.w3.org/2000/svg">
<path d="M0 17V3C0 2.20435 0.31607 1.44129 0.87868 0.87868C1.44129 0.316071 2.20435 0 3 0H19C19.2652 0 19.5196 0.105357 19.7071 0.292893C19.8946 0.48043 20 0.734784 20 1C20 1.26522 19.8946 1.51957 19.7071 1.70711C19.5196 1.89464 19.2652 2 19 2H3C2.73478 2 2.48043 2.10536 2.29289 2.29289C2.10536 2.48043 2 2.73478 2 3C2 3.26522 2.10536 3.51957 2.29289 3.70711C2.48043 3.89464 2.73478 4 3 4H19C19.2652 4 19.5196 4.10536 19.7071 4.29289C19.8946 4.48043 20 4.73478 20 5V8C20 8.26522 19.8946 8.51957 19.7071 8.70711C19.5196 8.89464 19.2652 9 19 9C18.7348 9 18.4804 8.89464 18.2929 8.70711C18.1054 8.51957 18 8.26522 18 8V6H3C2.65856 5.99669 2.32026 5.93444 2 5.816V17C2 17.2652 2.10536 17.5196 2.29289 17.7071C2.48043 17.8946 2.73478 18 3 18H11C11.2652 18 11.5196 18.1054 11.7071 18.2929C11.8946 18.4804 12 18.7348 12 19C12 19.2652 11.8946 19.5196 11.7071 19.7071C11.5196 19.8946 11.2652 20 11 20H3C2.20435 20 1.44129 19.6839 0.87868 19.1213C0.31607 18.5587 0 17.7956 0 17ZM22 15C22 15.9889 21.7068 16.9556 21.1573 17.7779C20.6079 18.6001 19.827 19.241 18.9134 19.6194C17.9998 19.9978 16.9945 20.0969 16.0245 19.9039C15.0546 19.711 14.1637 19.2348 13.4645 18.5355C12.7652 17.8363 12.289 16.9454 12.0961 15.9755C11.9031 15.0055 12.0022 14.0002 12.3806 13.0866C12.759 12.173 13.3999 11.3921 14.2221 10.8427C15.0444 10.2932 16.0111 10 17 10C18.3256 10.0016 19.5964 10.5289 20.5338 11.4662C21.4711 12.4036 21.9984 13.6744 22 15ZM20 15C20 14.4067 19.8241 13.8266 19.4944 13.3333C19.1648 12.8399 18.6962 12.4554 18.1481 12.2284C17.5999 12.0013 16.9967 11.9419 16.4147 12.0576C15.8328 12.1734 15.2982 12.4591 14.8787 12.8787C14.4591 13.2982 14.1734 13.8328 14.0576 14.4147C13.9419 14.9967 14.0013 15.5999 14.2284 16.1481C14.4554 16.6962 14.8399 17.1648 15.3333 17.4944C15.8266 17.8241 16.4067 18 17 18C17.7956 18 18.5587 17.6839 19.1213 17.1213C19.6839 16.5587 20 15.7956 20 15Z" fill="#3D3D3D"/>
</svg>
