<svg width="72" height="72" viewBox="0 0 72 72" fill="none" xmlns="http://www.w3.org/2000/svg">
<path d="M42.6667 34.4266L38.5467 36.6186L40.12 42.6666L36 38.8399L31.88 42.6666L33.4533 36.6186L29.3333 34.4266L34.4267 34.1759L36 29.3333L37.5733 34.1759L42.6667 34.4266ZM37.3333 25.3333V22.6666C37.3333 22.313 37.1929 21.9738 36.9428 21.7238C36.6928 21.4737 36.3536 21.3333 36 21.3333C35.6464 21.3333 35.3072 21.4737 35.0572 21.7238C34.8071 21.9738 34.6667 22.313 34.6667 22.6666V25.3333C34.6667 25.6869 34.8071 26.026 35.0572 26.2761C35.3072 26.5261 35.6464 26.6666 36 26.6666C36.3536 26.6666 36.6928 26.5261 36.9428 26.2761C37.1929 26.026 37.3333 25.6869 37.3333 25.3333ZM34.6667 46.6666V49.3333C34.6667 49.6869 34.8071 50.026 35.0572 50.2761C35.3072 50.5261 35.6464 50.6666 36 50.6666C36.3536 50.6666 36.6928 50.5261 36.9428 50.2761C37.1929 50.026 37.3333 49.6869 37.3333 49.3333V46.6666C37.3333 46.313 37.1929 45.9738 36.9428 45.7238C36.6928 45.4737 36.3536 45.3333 36 45.3333C35.6464 45.3333 35.3072 45.4737 35.0572 45.7238C34.8071 45.9738 34.6667 46.313 34.6667 46.6666ZM46.3707 25.6293C46.1206 25.3793 45.7815 25.2389 45.428 25.2389C45.0744 25.2389 44.7354 25.3793 44.4853 25.6293L42.6 27.5146C42.4727 27.6376 42.3711 27.7847 42.3012 27.9474C42.2313 28.1101 42.1945 28.285 42.193 28.462C42.1915 28.6391 42.2252 28.8147 42.2922 28.9785C42.3593 29.1424 42.4583 29.2913 42.5835 29.4164C42.7087 29.5416 42.8575 29.6406 43.0214 29.7077C43.1853 29.7747 43.3608 29.8085 43.5379 29.8069C43.7149 29.8054 43.8899 29.7686 44.0525 29.6987C44.2152 29.6288 44.3623 29.5273 44.4853 29.3999L46.3707 27.5146C46.6206 27.2645 46.761 26.9255 46.761 26.5719C46.761 26.2184 46.6206 25.8793 46.3707 25.6293ZM25.6293 46.3706C25.8794 46.6205 26.2184 46.761 26.572 46.761C26.9256 46.761 27.2646 46.6205 27.5147 46.3706L29.4 44.4853C29.6429 44.2338 29.7773 43.897 29.7742 43.5474C29.7712 43.1978 29.631 42.8634 29.3838 42.6162C29.1365 42.3689 28.8021 42.2287 28.4525 42.2257C28.1029 42.2226 27.7661 42.357 27.5147 42.5999L25.6293 44.4853C25.3794 44.7353 25.239 45.0744 25.239 45.4279C25.239 45.7815 25.3794 46.1205 25.6293 46.3706ZM49.3333 34.6666H46.6667C46.313 34.6666 45.9739 34.8071 45.7239 35.0571C45.4738 35.3072 45.3333 35.6463 45.3333 35.9999C45.3333 36.3535 45.4738 36.6927 45.7239 36.9427C45.9739 37.1928 46.313 37.3333 46.6667 37.3333H49.3333C49.687 37.3333 50.0261 37.1928 50.2761 36.9427C50.5262 36.6927 50.6667 36.3535 50.6667 35.9999C50.6667 35.6463 50.5262 35.3072 50.2761 35.0571C50.0261 34.8071 49.687 34.6666 49.3333 34.6666ZM22.6667 37.3333H25.3333C25.687 37.3333 26.0261 37.1928 26.2761 36.9427C26.5262 36.6927 26.6667 36.3535 26.6667 35.9999C26.6667 35.6463 26.5262 35.3072 26.2761 35.0571C26.0261 34.8071 25.687 34.6666 25.3333 34.6666H22.6667C22.313 34.6666 21.9739 34.8071 21.7239 35.0571C21.4738 35.3072 21.3333 35.6463 21.3333 35.9999C21.3333 36.3535 21.4738 36.6927 21.7239 36.9427C21.9739 37.1928 22.313 37.3333 22.6667 37.3333ZM44.4853 46.3706C44.7368 46.6135 45.0736 46.7479 45.4232 46.7448C45.7728 46.7418 46.1072 46.6016 46.3544 46.3543C46.6016 46.1071 46.7419 45.7727 46.7449 45.4231C46.7479 45.0735 46.6135 44.7367 46.3707 44.4853L44.4853 42.5999C44.2339 42.357 43.8971 42.2226 43.5475 42.2257C43.1979 42.2287 42.8635 42.3689 42.6162 42.6162C42.369 42.8634 42.2288 43.1978 42.2258 43.5474C42.2227 43.897 42.3571 44.2338 42.6 44.4853L44.4853 46.3706ZM29.4 29.3999C29.65 29.1499 29.7904 28.8108 29.7904 28.4573C29.7904 28.1037 29.65 27.7646 29.4 27.5146L27.5147 25.6293C27.2632 25.3864 26.9264 25.252 26.5768 25.255C26.2272 25.2581 25.8928 25.3983 25.6456 25.6455C25.3984 25.8927 25.2581 26.2271 25.2551 26.5767C25.2521 26.9263 25.3865 27.2631 25.6293 27.5146L27.5147 29.3999C27.7647 29.6499 28.1038 29.7903 28.4573 29.7903C28.8109 29.7903 29.15 29.6499 29.4 29.3999Z" fill="#009D32"/>
<rect width="72" height="72" rx="7"  fill-opacity="0.3"/>
</svg>
