<svg width="20" height="20" viewBox="0 0 20 20" fill="none" xmlns="http://www.w3.org/2000/svg">
<path d="M2 3C2 3.26522 2.10536 3.51957 2.29289 3.70711C2.48043 3.89464 2.73478 4 3 4H19C19.2652 4 19.5196 4.10536 19.7071 4.29289C19.8946 4.48043 20 4.73478 20 5V19C20 19.2652 19.8946 19.5196 19.7071 19.7071C19.5196 19.8946 19.2652 20 19 20H14C13.7348 20 13.4804 19.8946 13.2929 19.7071C13.1054 19.5196 13 19.2652 13 19C13 18.7348 13.1054 18.4804 13.2929 18.2929C13.4804 18.1054 13.7348 18 14 18H18V6H3C2.65856 5.99669 2.32026 5.93444 2 5.816V17C2 17.2652 2.10536 17.5196 2.29289 17.7071C2.48043 17.8946 2.73478 18 3 18H8C8.26522 18 8.51957 17.8946 8.70711 17.7071C8.89464 17.5196 9 17.2652 9 17V12.414L7.707 13.707C7.5184 13.8892 7.2658 13.99 7.0036 13.9877C6.7414 13.9854 6.49059 13.8802 6.30518 13.6948C6.11977 13.5094 6.0146 13.2586 6.01233 12.9964C6.01005 12.7342 6.11084 12.4816 6.293 12.293L9.293 9.293C9.38613 9.19968 9.49697 9.12591 9.619 9.076C9.86363 8.97488 10.1384 8.97488 10.383 9.076C10.505 9.12591 10.6159 9.19968 10.709 9.293L13.709 12.293C13.8912 12.4816 13.992 12.7342 13.9897 12.9964C13.9874 13.2586 13.8822 13.5094 13.6968 13.6948C13.5114 13.8802 13.2606 13.9854 12.9984 13.9877C12.7362 13.99 12.4836 13.8892 12.295 13.707L11 12.414V17C11 17.7956 10.6839 18.5587 10.1213 19.1213C9.55871 19.6839 8.79565 20 8 20H3C2.20435 20 1.44129 19.6839 0.87868 19.1213C0.316071 18.5587 0 17.7956 0 17V3C0 2.20435 0.316071 1.44129 0.87868 0.87868C1.44129 0.316071 2.20435 0 3 0H19C19.2652 0 19.5196 0.105357 19.7071 0.292893C19.8946 0.48043 20 0.734784 20 1C20 1.26522 19.8946 1.51957 19.7071 1.70711C19.5196 1.89464 19.2652 2 19 2H3C2.73478 2 2.48043 2.10536 2.29289 2.29289C2.10536 2.48043 2 2.73478 2 3Z" fill="#3D3D3D"/>
</svg>
