<svg width="32" height="32" viewBox="0 0 32 32" fill="none" xmlns="http://www.w3.org/2000/svg">
<g clip-path="url(#clip0)">
<path d="M31.5211 19.8732C29.3835 28.4428 20.7019 33.6588 12.1291 31.5212C3.55946 29.3868 -1.65654 20.702 0.481057 12.1324C2.61866 3.55957 11.3003 -1.65643 19.8699 0.481168C28.4427 2.61557 33.6587 11.3004 31.5211 19.8732Z" fill="#F7931A"/>
<path d="M23.0528 13.7216C23.3728 11.5936 21.7504 10.448 19.5328 9.6832L20.2528 6.8L18.496 6.3616L17.7952 9.168C17.3344 9.0528 16.8608 8.944 16.3872 8.8384L17.0912 6.0128L15.3376 5.5744L14.624 8.4576C14.2432 8.3712 13.8656 8.2848 13.504 8.1952L13.5072 8.1856L11.0848 7.5808L10.6176 9.456C10.6176 9.456 11.92 9.7536 11.8912 9.7728C12.6016 9.9488 12.7296 10.4224 12.7104 10.7936L11.8912 14.08C11.9392 14.0928 12.0032 14.112 12.0736 14.1376C12.016 14.1216 11.952 14.1056 11.888 14.0928L10.7392 18.6944C10.6528 18.912 10.432 19.2352 9.93602 19.1104C9.95202 19.136 8.65922 18.7904 8.65922 18.7904L7.78882 20.8L10.0736 21.3696C10.4992 21.4752 10.9152 21.5872 11.3248 21.6928L10.5984 24.6112L12.352 25.0496L13.072 22.1632C13.552 22.2944 14.016 22.4128 14.4704 22.5248L13.7536 25.3984L15.5104 25.8368L16.2368 22.9248C19.2288 23.4912 21.4816 23.264 22.4288 20.5568C23.1936 18.3776 22.3904 17.12 20.816 16.3008C21.9584 16.0352 22.8224 15.28 23.0528 13.7216ZM19.0432 19.344C18.4992 21.5232 14.8288 20.3456 13.6416 20.0512L14.6048 16.1856C15.7952 16.4832 19.6096 17.072 19.0432 19.344ZM19.5872 13.6896C19.0912 15.6736 16.0384 14.6656 15.0464 14.4192L15.92 10.912C16.912 11.1584 20.1024 11.6192 19.5872 13.6896Z" fill="white"/>
</g>
<defs>
<clipPath id="clip0">
<rect width="32" height="32" fill="white"/>
</clipPath>
</defs>
</svg>
