<svg width="13" height="19" viewBox="0 0 13 19" fill="none" xmlns="http://www.w3.org/2000/svg">
<g clip-path="url(#clip0)">
<path d="M6.30894 0.0101822V0.0203644C6.31913 0.0712755 6.31913 0.122186 6.31913 0.173098C6.31913 2.403 6.31913 4.64309 6.31913 6.87299C6.31913 6.91372 6.31913 6.95445 6.31913 6.98499C6.30894 7.02572 6.2784 7.03591 6.24785 7.04609C6.05439 7.13773 5.86093 7.22937 5.65728 7.31083C5.38236 7.43301 5.09726 7.56538 4.82234 7.68757C4.48633 7.8403 4.1605 7.98285 3.83467 8.13558C3.55975 8.25777 3.29501 8.37996 3.02009 8.51233C2.69426 8.66506 2.36843 8.80761 2.0426 8.96034C1.76768 9.08253 1.49276 9.2149 1.21784 9.33708C0.99383 9.43891 0.769822 9.54073 0.545813 9.64255C0.515267 9.6731 0.505084 9.6731 0.48472 9.6731C0.474538 9.6731 0.474538 9.6731 0.464355 9.66292C0.545813 9.52036 0.637453 9.37781 0.718911 9.23526C1.20766 8.44105 1.6964 7.62647 2.18515 6.82208C2.70444 5.95659 3.23392 5.08092 3.75321 4.21543C4.24196 3.41104 4.72052 2.60665 5.20927 1.80225C5.56564 1.22187 5.91184 0.631297 6.26821 0.050911C6.2784 0.0407288 6.28858 0.0203644 6.28858 0H6.29876L6.30894 0.0101822Z" fill="#8A93B2"/>
<path d="M12.1132 9.66291C12.1234 9.67309 12.1234 9.67309 12.1234 9.67309C11.6652 9.94801 11.1968 10.2229 10.7386 10.4979C9.27238 11.3633 7.81632 12.2186 6.36027 13.0841C6.3399 13.0943 6.32972 13.1045 6.30936 13.1147C6.27881 13.1147 6.27881 13.0943 6.27881 13.0739C6.27881 13.0434 6.27881 13.023 6.27881 12.9925C6.27881 11.0477 6.27881 9.10289 6.27881 7.15809C6.27881 7.12754 6.27881 7.097 6.27881 7.05627C6.28899 7.01554 6.31954 7.02572 6.3399 7.0359C6.46209 7.08681 6.59446 7.14791 6.71664 7.209C7.0832 7.37191 7.45994 7.54501 7.8265 7.70793C8.14215 7.85048 8.46798 7.99303 8.78363 8.14576C9.10946 8.28831 9.42511 8.44105 9.75094 8.5836C10.0259 8.70578 10.311 8.83815 10.5859 8.96034C10.8608 9.08253 11.1459 9.21489 11.4208 9.33708C11.6346 9.4389 11.8485 9.53054 12.0725 9.63236C12.0827 9.64255 12.0928 9.65273 12.1132 9.66291Z" fill="#454B75"/>
<path d="M6.30943 18.9796C6.30943 18.9898 6.29925 19 6.29925 19H6.28906C6.28906 18.9796 6.27888 18.9694 6.2687 18.9593C5.67813 18.1345 5.09775 17.3098 4.50718 16.485C3.90643 15.6399 3.30568 14.7947 2.70493 13.9496C2.12454 13.135 1.54416 12.3205 0.963772 11.5059C0.811039 11.2921 0.658306 11.0782 0.505573 10.8644C0.49539 10.8441 0.485208 10.8339 0.464844 10.8135C0.49539 10.8135 0.505573 10.8237 0.525937 10.8339C1.34051 11.3124 2.16527 11.8012 2.97985 12.2797C3.91661 12.8398 4.86356 13.3896 5.80032 13.9496C5.96323 14.0413 6.11597 14.1329 6.27888 14.2347C6.29925 14.2449 6.29925 14.2755 6.29925 14.2958C6.29925 14.3264 6.29925 14.3467 6.29925 14.3773C6.29925 15.8639 6.29925 17.3607 6.29925 18.8473C6.31961 18.888 6.31961 18.9287 6.30943 18.9796Z" fill="#8A93B2"/>
<path d="M0.464772 9.6731H0.474954C0.474954 9.68328 0.474954 9.68328 0.474954 9.68328C0.464772 9.68328 0.464772 9.68328 0.45459 9.68328C0.45459 9.6731 0.45459 9.6731 0.45459 9.6731H0.464772Z" fill="#808080"/>
<path d="M6.30896 0.0096463C6.29932 0.0096463 6.29932 0 6.29932 0H6.30896V0.0096463Z" fill="white"/>
<path d="M0.475098 9.68327V9.67309C0.770382 9.54072 1.07585 9.39817 1.37113 9.2658C1.75806 9.0927 2.14498 8.90942 2.5319 8.73633C2.82719 8.60396 3.12247 8.46141 3.41776 8.32904C3.84541 8.13558 4.28324 7.94211 4.7109 7.73847C5.00618 7.6061 5.30146 7.47373 5.59675 7.33118C5.81058 7.23954 6.01422 7.13772 6.22805 7.04608C6.24841 7.0359 6.26877 7.02572 6.28914 7.01553C6.29932 7.01553 6.29932 7.02572 6.28914 7.02572C6.28914 7.04608 6.28914 7.06644 6.28914 7.08681C6.28914 9.06216 6.28914 11.0477 6.28914 13.023C6.28914 13.0536 6.27896 13.0739 6.29932 13.1045C6.27896 13.1249 6.26877 13.1045 6.24841 13.0943C6.16695 13.0434 6.08549 12.9925 5.99385 12.9416C4.18142 11.8724 2.35881 10.7931 0.526009 9.71382C0.515826 9.70364 0.495462 9.69345 0.475098 9.68327Z" fill="#62698F"/>
<path d="M12.093 10.8033H12.1032C12.1032 10.8237 12.0828 10.8441 12.0726 10.8543C10.3315 13.3082 8.60049 15.7519 6.85934 18.2058C6.67606 18.4604 6.49278 18.7149 6.3095 18.9796C6.29932 18.9695 6.29932 18.9695 6.29932 18.9593C6.29932 18.9389 6.29932 18.9287 6.29932 18.9084C6.29932 17.381 6.29932 15.8537 6.29932 14.3264C6.29932 14.2958 6.29932 14.2653 6.29932 14.2347C6.69642 14.0006 7.08335 13.7664 7.48045 13.5424C9.00778 12.6361 10.5351 11.7401 12.0624 10.8339C12.0726 10.8135 12.0828 10.8033 12.093 10.8033Z" fill="#62698F"/>
<path d="M6.29893 7.03591V7.02573C6.29893 7.00536 6.29893 6.985 6.29893 6.96464C6.29893 4.67364 6.29893 2.39282 6.29893 0.101824C6.29893 0.0814592 6.28875 0.0509125 6.30911 0.0305481C8.22337 3.2074 10.1376 6.39443 12.0621 9.57128C12.0824 9.60183 12.113 9.63238 12.113 9.67311C11.9806 9.62219 11.8584 9.5611 11.7362 9.50001C11.5835 9.42873 11.4308 9.35746 11.278 9.29636C11.1762 9.25563 11.0846 9.20472 10.9827 9.16399C10.8198 9.09272 10.6569 9.02144 10.5042 8.95017C10.4125 8.90944 10.3209 8.86871 10.2191 8.8178C10.0154 8.72616 9.80161 8.63452 9.59797 8.5327C9.49615 8.48179 9.38414 8.43087 9.28232 8.39015C9.12959 8.31887 8.97685 8.25778 8.8343 8.1865C8.74266 8.14577 8.65102 8.10504 8.5492 8.05413C8.34556 7.96249 8.13173 7.87085 7.92809 7.76903C7.82626 7.71812 7.71426 7.66721 7.61244 7.62648C7.4597 7.5552 7.30697 7.49411 7.16442 7.42284C7.0626 7.38211 6.96078 7.3312 6.85895 7.28028C6.67567 7.19883 6.49239 7.11737 6.30911 7.03591C6.30911 7.03591 6.30911 7.03591 6.29893 7.03591Z" fill="#62698F"/>
</g>
<defs>
<clipPath id="clip0">
<rect width="11.6688" height="19" fill="white" transform="translate(0.45459)"/>
</clipPath>
</defs>
</svg>
