<svg width="24" height="24" viewBox="0 0 24 24" fill="none" xmlns="http://www.w3.org/2000/svg">
<path d="M16.6695 11.7656C16.5152 11.9177 16.3085 12.0019 16.094 12C15.8795 11.9981 15.6742 11.9102 15.5225 11.7554C15.3708 11.6006 15.2848 11.3912 15.2829 11.1722C15.2811 10.9533 15.3635 10.7423 15.5126 10.5848L18.2069 7.83504H3.81819C3.60119 7.83504 3.39308 7.74707 3.23964 7.59046C3.0862 7.43386 3 7.22147 3 7C3 6.77853 3.0862 6.56614 3.23964 6.40953C3.39308 6.25293 3.60119 6.16496 3.81819 6.16496H18.2069L15.5126 3.41516C15.3635 3.25767 15.2811 3.04673 15.2829 2.82779C15.2848 2.60884 15.3708 2.3994 15.5225 2.24458C15.6742 2.08975 15.8795 2.00193 16.094 2.00003C16.3085 1.99813 16.5152 2.0823 16.6695 2.23441L20.7604 6.40962C20.9138 6.56622 21 6.77858 21 7C21 7.22142 20.9138 7.43378 20.7604 7.59037L16.6695 11.7656Z" fill="#3D3D3D"/>
<path d="M7.3305 13.2344C7.48482 13.0823 7.69149 12.9981 7.90602 13C8.12055 13.0019 8.32576 13.0898 8.47746 13.2446C8.62916 13.3994 8.71521 13.6088 8.71707 13.8278C8.71893 14.0467 8.63647 14.2577 8.48743 14.4152L5.79313 17.165L20.1818 17.165C20.3988 17.165 20.6069 17.2529 20.7604 17.4095C20.9138 17.5661 21 17.7785 21 18C21 18.2215 20.9138 18.4339 20.7604 18.5905C20.6069 18.7471 20.3988 18.835 20.1818 18.835L5.79313 18.835L8.48742 21.5848C8.63647 21.7423 8.71893 21.9533 8.71707 22.1722C8.71521 22.3912 8.62916 22.6006 8.47746 22.7554C8.32576 22.9102 8.12055 22.9981 7.90602 23C7.69149 23.0019 7.48482 22.9177 7.3305 22.7656L3.23956 18.5904C3.08617 18.4338 3 18.2214 3 18C3 17.7786 3.08617 17.5662 3.23956 17.4096L7.3305 13.2344Z" fill="#3D3D3D"/>
</svg>
