<svg width="75" height="65" viewBox="0 0 75 65" fill="none" xmlns="http://www.w3.org/2000/svg">
<path d="M51.5538 29.9981L47.2957 25.7021L43.7901 29.2542L48.0298 33.5503H42.6888V38.5902H56.5093V24.5676H51.5538V29.9981Z" fill="url(#paint0_linear_533_283)"/>
<path d="M42.6888 5.03994H48.0298L43.7901 9.33597L47.2957 12.8881L51.5538 8.59207V14.0226H56.5094V0H42.6888V5.03994Z" fill="url(#paint1_linear_533_283)"/>
<path d="M18.4427 14.0226H23.3982V8.59207L27.6379 12.8881L31.1619 9.33597L26.9221 5.03994H32.2631V0H18.4427V14.0226Z" fill="url(#paint2_linear_533_283)"/>
<path d="M31.1619 29.2542L27.6379 25.7021L23.3982 29.9981V24.5676H18.4427V38.5902H32.2631V33.5503H26.9221L31.1619 29.2542Z" fill="url(#paint3_linear_533_283)"/>
<path d="M37.4761 26.3892L32.4472 21.312H25.4177L37.4761 33.5121L49.5162 21.312H42.5051L37.4761 26.3892Z" fill="white"/>
<path d="M25.4177 17.2772H32.4472L37.4761 12.2001L42.5051 17.2772H49.5162L37.4761 5.07715L25.4177 17.2772Z" fill="white"/>
<path d="M40.9453 33.5507H33.9892V38.5906H40.9453V33.5507Z" fill="white"/>
<path d="M40.9453 0H33.9892V5.03997H40.9453V0Z" fill="white"/>
<path d="M45.9329 48.4532H51.6687C53.3252 48.4532 54.1534 49.2286 54.1534 50.7793V54.9821C54.1534 55.916 53.8009 56.4623 53.0961 56.6209C53.8009 56.7971 54.1534 57.3081 54.1534 58.154V62.6739C54.1534 64.2246 53.3252 65 51.6687 65H45.9329V48.4532ZM51.748 62.3568V58.2861C51.748 57.969 51.6952 57.7663 51.5894 57.6782C51.4837 57.5725 51.2722 57.5196 50.955 57.5196H48.3118V63.1233H50.955C51.2722 63.1233 51.4837 63.0792 51.5894 62.9911C51.6952 62.8854 51.748 62.6739 51.748 62.3568ZM51.748 54.8763V51.0965C51.748 50.7793 51.6952 50.5767 51.5894 50.4886C51.4837 50.3828 51.2722 50.33 50.955 50.33H48.3118V55.6429H50.955C51.2722 55.6429 51.4837 55.5988 51.5894 55.5107C51.6952 55.405 51.748 55.1935 51.748 54.8763Z" fill="#01974F"/>
<path d="M62.643 62.3039V51.1494C62.643 50.8322 62.5901 50.6295 62.4844 50.5414C62.3786 50.4357 62.1672 50.3828 61.85 50.3828H60.3169C59.9997 50.3828 59.7882 50.4357 59.6825 50.5414C59.5944 50.6295 59.5504 50.8322 59.5504 51.1494V62.3039C59.5504 62.6211 59.5944 62.8325 59.6825 62.9383C59.7882 63.0264 59.9997 63.0704 60.3169 63.0704H61.85C62.1672 63.0704 62.3786 63.0264 62.4844 62.9383C62.5901 62.8325 62.643 62.6211 62.643 62.3039ZM59.6297 48.4532H62.5637C64.2025 48.4532 65.0219 49.2286 65.0219 50.7793V62.6739C65.0219 64.2246 64.2025 65 62.5637 65H59.6297C57.9732 65 57.145 64.2246 57.145 62.6739V50.7793C57.145 49.2286 57.9732 48.4532 59.6297 48.4532Z" fill="#01974F"/>
<path d="M74.8701 48.4532V50.3828H72.0947V65H69.7157V50.3828H66.9403V48.4532H74.8701Z" fill="#01974F"/>
<path d="M0 65V48.4532H2.37893V65H0ZM8.51127 48.4532L5.02218 56.7531L8.48484 65H5.89445L2.53752 56.7531L5.94732 48.4532H8.51127Z" fill="white"/>
<path d="M13.0521 50.3828V56.4094H15.3781C15.6953 56.4094 15.9068 56.3654 16.0125 56.2773C16.1183 56.1715 16.1711 55.9601 16.1711 55.6429V51.1494C16.1711 50.8322 16.1183 50.6295 16.0125 50.5414C15.9068 50.4357 15.6953 50.3828 15.3781 50.3828H13.0521ZM13.0521 58.3126V65H10.6732V48.4532H16.0918C17.7306 48.4532 18.55 49.2286 18.55 50.7793V55.9601C18.55 57.2993 17.9597 58.0659 16.7791 58.2597L19.3959 65H16.8319L14.3473 58.3126H13.0521Z" fill="white"/>
<path d="M24.0608 50.3828V56.4094H26.3869C26.7041 56.4094 26.9155 56.3654 27.0213 56.2773C27.127 56.1715 27.1799 55.9601 27.1799 55.6429V51.1494C27.1799 50.8322 27.127 50.6295 27.0213 50.5414C26.9155 50.4357 26.7041 50.3828 26.3869 50.3828H24.0608ZM24.0608 58.3126V65H21.6819V48.4532H27.1006C28.7394 48.4532 29.5588 49.2286 29.5588 50.7793V55.9601C29.5588 57.2993 28.9685 58.0659 27.7878 58.2597L30.4046 65H27.8407L25.356 58.3126H24.0608Z" fill="white"/>
<path d="M37.5278 56.5416L41.0697 65H38.4265L36.2061 58.7091L33.9858 65H31.4219L34.9109 56.5416L31.6597 48.4532H34.303L36.2061 54.4006L38.1357 48.4532H40.7261L37.5278 56.5416Z" fill="white"/>
<defs>
<linearGradient id="paint0_linear_533_283" x1="49.5986" y1="38.587" x2="49.5986" y2="24.5731" gradientUnits="userSpaceOnUse">
<stop stop-color="#00A171"/>
<stop offset="0.6034" stop-color="#009B33"/>
<stop offset="1" stop-color="#009D32"/>
</linearGradient>
<linearGradient id="paint1_linear_533_283" x1="49.5987" y1="14.0162" x2="49.5987" y2="0.00239895" gradientUnits="userSpaceOnUse">
<stop stop-color="#00A171"/>
<stop offset="0.6034" stop-color="#009B33"/>
<stop offset="1" stop-color="#009D32"/>
</linearGradient>
<linearGradient id="paint2_linear_533_283" x1="25.3495" y1="14.0162" x2="25.3495" y2="0.00239895" gradientUnits="userSpaceOnUse">
<stop stop-color="#00A171"/>
<stop offset="0.6034" stop-color="#009B33"/>
<stop offset="1" stop-color="#009D32"/>
</linearGradient>
<linearGradient id="paint3_linear_533_283" x1="25.3495" y1="38.587" x2="25.3495" y2="24.5731" gradientUnits="userSpaceOnUse">
<stop stop-color="#00A171"/>
<stop offset="0.6034" stop-color="#009B33"/>
<stop offset="1" stop-color="#009D32"/>
</linearGradient>
</defs>
</svg>
