<svg width="72" height="72" viewBox="0 0 72 72" fill="none" xmlns="http://www.w3.org/2000/svg">
<rect width="72" height="72" rx="7" fill-opacity="0.3"/>
<path d="M49.3333 29.3333H41.7773V25.3333C41.7773 24.9797 41.6369 24.6406 41.3868 24.3905C41.1368 24.1405 40.7976 24 40.444 24H31.556C31.2024 24 30.8632 24.1405 30.6132 24.3905C30.3632 24.6406 30.2227 24.9797 30.2227 25.3333V34.6667H22.6667C22.3131 34.6667 21.9739 34.8071 21.7239 35.0572C21.4738 35.3072 21.3333 35.6464 21.3333 36V46.6667C21.3333 47.0203 21.4738 47.3594 21.7239 47.6095C21.9739 47.8595 22.3131 48 22.6667 48H49.3333C49.687 48 50.0261 47.8595 50.2762 47.6095C50.5262 47.3594 50.6667 47.0203 50.6667 46.6667V30.6667C50.6667 30.313 50.5262 29.9739 50.2762 29.7239C50.0261 29.4738 49.687 29.3333 49.3333 29.3333ZM30.2227 45.3333H24V37.3333H30.2227V45.3333ZM39.1107 45.3333H32.8893V26.6667H39.1107V45.3333ZM48 45.3333H41.7773V32H48V45.3333Z" fill="#009D32"/>
</svg>
