<svg width="151" height="41" viewBox="0 0 151 41" fill="none" xmlns="http://www.w3.org/2000/svg">
<path d="M35.3241 31.8709L30.7814 27.3066L27.0415 31.0806L31.5647 35.6449H25.8667V40.9996H40.6109V26.1013H35.3241V31.8709Z" fill="url(#paint0_linear_542_427)"/>
<path d="M25.8667 5.35465H31.5647L27.0415 9.91895L30.7814 13.6929L35.3241 9.12859V14.8982H40.6109V0H25.8667V5.35465Z" fill="url(#paint1_linear_542_427)"/>
<path d="M0 14.8982H5.28674V9.12859L9.80984 13.6929L13.5693 9.91895L9.0462 5.35465H14.7441V0H0V14.8982Z" fill="url(#paint2_linear_542_427)"/>
<path d="M13.5693 31.0806L9.80984 27.3066L5.28674 31.8709V26.1013H0V40.9996H14.7441V35.6449H9.0462L13.5693 31.0806Z" fill="url(#paint3_linear_542_427)"/>
<path d="M20.3059 28.0377L14.9408 22.6436H7.44147L20.3059 35.6054L33.1507 22.6436H25.6709L20.3059 28.0377Z" fill="#3D3D3D"/>
<path d="M7.44147 18.3562H14.9408L20.3059 12.962L25.6709 18.3562H33.1507L20.3059 5.39429L7.44147 18.3562Z" fill="#3D3D3D"/>
<path d="M24.0066 35.6453H16.5856V40.9999H24.0066V35.6453Z" fill="#3D3D3D"/>
<path d="M24.0066 0H16.5856V5.35468H24.0066V0Z" fill="#3D3D3D"/>
<path d="M112.071 9H119.697C121.899 9 123 10.0309 123 12.0927V17.6805C123 18.9223 122.532 19.6486 121.595 19.8594C122.532 20.0937 123 20.7732 123 21.8978V27.9073C123 29.9691 121.899 31 119.697 31H112.071V9ZM119.802 27.4856V22.0735C119.802 21.6518 119.732 21.3823 119.591 21.2652C119.451 21.1246 119.17 21.0543 118.748 21.0543H115.234V28.5048H118.748C119.17 28.5048 119.451 28.4462 119.591 28.3291C119.732 28.1885 119.802 27.9073 119.802 27.4856ZM119.802 17.5399V12.5144C119.802 12.0927 119.732 11.8232 119.591 11.7061C119.451 11.5655 119.17 11.4952 118.748 11.4952H115.234V18.5591H118.748C119.17 18.5591 119.451 18.5005 119.591 18.3834C119.732 18.2428 119.802 17.9617 119.802 17.5399Z" fill="#01974F"/>
<path d="M134.288 27.4153V12.5847C134.288 12.1629 134.218 11.8935 134.077 11.7764C133.936 11.6358 133.655 11.5655 133.234 11.5655H131.195C130.773 11.5655 130.492 11.6358 130.352 11.7764C130.235 11.8935 130.176 12.1629 130.176 12.5847V27.4153C130.176 27.8371 130.235 28.1182 130.352 28.2588C130.492 28.3759 130.773 28.4345 131.195 28.4345H133.234C133.655 28.4345 133.936 28.3759 134.077 28.2588C134.218 28.1182 134.288 27.8371 134.288 27.4153ZM130.281 9H134.182C136.361 9 137.451 10.0309 137.451 12.0927V27.9073C137.451 29.9691 136.361 31 134.182 31H130.281C128.079 31 126.978 29.9691 126.978 27.9073V12.0927C126.978 10.0309 128.079 9 130.281 9Z" fill="#01974F"/>
<path d="M150.545 9V11.5655H146.854V31H143.692V11.5655H140.001V9H150.545Z" fill="#01974F"/>
<path d="M51 31V9H54.1629V31H51ZM62.3163 9L57.6773 20.0351L62.2811 31H58.8371L54.3738 20.0351L58.9073 9H62.3163Z" fill="#3D3D3D"/>
<path d="M68.3536 11.5655V19.5783H71.4463C71.868 19.5783 72.1491 19.5197 72.2897 19.4026C72.4303 19.262 72.5006 18.9808 72.5006 18.5591V12.5847C72.5006 12.1629 72.4303 11.8935 72.2897 11.7764C72.1491 11.6358 71.868 11.5655 71.4463 11.5655H68.3536ZM68.3536 22.1086V31H65.1907V9H72.3951C74.5741 9 75.6635 10.0309 75.6635 12.0927V18.9808C75.6635 20.7614 74.8786 21.7806 73.3089 22.0383L76.7881 31H73.3792L70.0757 22.1086H68.3536Z" fill="#3D3D3D"/>
<path d="M82.9904 11.5655V19.5783H86.0831C86.5048 19.5783 86.786 19.5197 86.9265 19.4026C87.0671 19.262 87.1374 18.9808 87.1374 18.5591V12.5847C87.1374 12.1629 87.0671 11.8935 86.9265 11.7764C86.786 11.6358 86.5048 11.5655 86.0831 11.5655H82.9904ZM82.9904 22.1086V31H79.8275V9H87.032C89.2109 9 90.3003 10.0309 90.3003 12.0927V18.9808C90.3003 20.7614 89.5155 21.7806 87.9457 22.0383L91.4249 31H88.016L84.7125 22.1086H82.9904Z" fill="#3D3D3D"/>
<path d="M100.896 19.754L105.605 31H102.091L99.1384 22.6358L96.1864 31H92.7774L97.4164 19.754L93.0937 9H96.6081L99.1384 16.9073L101.704 9H105.148L100.896 19.754Z" fill="#3D3D3D"/>
<defs>
<linearGradient id="paint0_linear_542_427" x1="33.2383" y1="40.9961" x2="33.2383" y2="26.1071" gradientUnits="userSpaceOnUse">
<stop stop-color="#00A171"/>
<stop offset="0.6034" stop-color="#009B33"/>
<stop offset="1" stop-color="#009D32"/>
</linearGradient>
<linearGradient id="paint1_linear_542_427" x1="33.2383" y1="14.8915" x2="33.2383" y2="0.00254875" gradientUnits="userSpaceOnUse">
<stop stop-color="#00A171"/>
<stop offset="0.6034" stop-color="#009B33"/>
<stop offset="1" stop-color="#009D32"/>
</linearGradient>
<linearGradient id="paint2_linear_542_427" x1="7.36846" y1="14.8915" x2="7.36846" y2="0.00254875" gradientUnits="userSpaceOnUse">
<stop stop-color="#00A171"/>
<stop offset="0.6034" stop-color="#009B33"/>
<stop offset="1" stop-color="#009D32"/>
</linearGradient>
<linearGradient id="paint3_linear_542_427" x1="7.36846" y1="40.9961" x2="7.36846" y2="26.1071" gradientUnits="userSpaceOnUse">
<stop stop-color="#00A171"/>
<stop offset="0.6034" stop-color="#009B33"/>
<stop offset="1" stop-color="#009D32"/>
</linearGradient>
</defs>
</svg>
