<svg width="64" height="64" viewBox="0 0 64 64" fill="none" xmlns="http://www.w3.org/2000/svg">
<path d="M36.0167 16.0667H25.975C24.9395 16.0667 24.1 16.9062 24.1 17.9417V32.1333H21.9584C20.9229 32.1333 20.0834 32.9728 20.0834 34.0083C20.0834 35.0438 20.9229 35.8833 21.9584 35.8833H24.1V40.1667H21.9584C20.9229 40.1667 20.0834 41.0062 20.0834 42.0417C20.0834 43.0772 20.9229 43.9167 21.9584 43.9167H24.1V48.0666C24.1 49.1021 24.9395 49.9417 25.975 49.9417C27.0105 49.9417 27.85 49.1021 27.85 48.0666V43.9167H36.0167C37.0522 43.9167 37.8917 43.0772 37.8917 42.0417C37.8917 41.0062 37.0522 40.1667 36.0167 40.1667H27.85V35.8833H36.0167C41.4802 35.8833 45.9251 31.4384 45.9251 25.9749C45.925 20.3764 41.3646 16.0667 36.0167 16.0667V16.0667ZM36.0167 32.1333H27.85V19.8167H36.0167C39.392 19.8167 42.1751 22.5392 42.1751 25.975C42.175 29.3708 39.4125 32.1333 36.0167 32.1333Z" fill="#219653"/>
<path d="M32 0C14.3551 0 0 14.3551 0 32C0 49.6449 14.3551 64 32 64C49.6449 64 64 49.6449 64 32C64 14.3551 49.6449 0 32 0ZM32 60.25C16.4229 60.25 3.75 47.5771 3.75 32C3.75 16.4229 16.4229 3.75 32 3.75C47.5771 3.75 60.25 16.4229 60.25 32C60.25 47.5771 47.5771 60.25 32 60.25Z" fill="#219653"/>
</svg>
