<svg width="32" height="32" viewBox="0 0 32 32" fill="none" xmlns="http://www.w3.org/2000/svg">
<path d="M16 32C24.8366 32 32 24.8366 32 16C32 7.16344 24.8366 0 16 0C7.16344 0 0 7.16344 0 16C0 24.8366 7.16344 32 16 32Z" fill="#FF0114"/>
<path d="M26.5131 11.263C25.6056 10.6282 24.6351 9.95148 23.6856 9.28001C23.6646 9.26427 23.6436 9.24853 23.6174 9.2328C23.5124 9.15411 23.3918 9.07017 23.2449 9.02296L23.2344 9.01771C20.6954 8.40394 18.1144 7.77443 15.6174 7.16591C13.3511 6.61509 11.0901 6.06427 8.82392 5.51345C8.76622 5.49771 8.70851 5.48197 8.64556 5.46624C8.44097 5.40853 8.2049 5.34558 7.9531 5.37706C7.87966 5.38755 7.81671 5.41378 7.759 5.4505L7.69605 5.50296C7.59638 5.59739 7.54392 5.71804 7.51769 5.78624L7.50195 5.8282V6.06952L7.51244 6.10624C8.94458 10.1194 10.4134 14.1902 11.8298 18.1298C12.921 21.162 14.0541 24.3043 15.161 27.3889C15.2292 27.5987 15.4233 27.7351 15.6646 27.7561H15.717C15.9426 27.7561 16.142 27.6459 16.2416 27.4675L20.3964 21.4085C21.4088 19.9344 22.4213 18.4551 23.4338 16.981C23.8482 16.3777 24.2626 15.7692 24.677 15.1659C25.359 14.1692 26.062 13.141 26.7597 12.139L26.7964 12.0866V12.0236C26.8121 11.84 26.8174 11.4623 26.5131 11.263ZM21.6449 13.4715C20.6692 13.9803 19.6724 14.5049 18.6705 15.0243C19.2528 14.4 19.8403 13.7705 20.4226 13.1462C21.1518 12.3594 21.9124 11.5462 22.6574 10.7489L22.6731 10.7331C22.736 10.6492 22.8147 10.5705 22.8987 10.4866C22.9564 10.4289 23.0193 10.3712 23.077 10.303C23.4652 10.5705 23.8587 10.8433 24.2364 11.1108C24.5092 11.3049 24.7872 11.499 25.0705 11.6931C23.9164 12.2807 22.7623 12.8839 21.6449 13.4715ZM19.1374 13.2197C18.3872 14.0328 17.6108 14.8669 16.8397 15.6905C15.3446 13.8754 13.818 12.0341 12.3387 10.2557C11.6672 9.44788 10.9905 8.63476 10.319 7.82689L10.3138 7.82165C10.1616 7.64853 10.0147 7.45968 9.86785 7.28132C9.77343 7.16066 9.67376 7.04525 9.57408 6.9246C10.1826 7.08198 10.7964 7.22886 11.3997 7.3705C11.9295 7.4964 12.4803 7.62755 13.0206 7.76394C16.0633 8.50361 19.1111 9.24329 22.1538 9.98296C21.1413 11.0636 20.1236 12.16 19.1374 13.2197ZM16.4987 23.4439C16.5564 22.8931 16.6193 22.3266 16.6718 21.7705C16.719 21.3246 16.7662 20.8682 16.8134 20.4328C16.8869 19.7351 16.9656 19.0112 17.0285 18.303L17.0442 18.1771C17.0967 17.7259 17.1492 17.259 17.1806 16.7921C17.2383 16.7607 17.3013 16.7292 17.3695 16.703C17.4482 16.6662 17.5269 16.6348 17.6056 16.5875C18.8174 15.9528 20.0292 15.318 21.2462 14.6885C22.458 14.059 23.7013 13.4085 24.9341 12.7633C23.8115 14.3895 22.6836 16.0315 21.5924 17.6315C20.6534 19.0007 19.6882 20.4118 18.7282 21.802C18.3505 22.358 17.957 22.9246 17.5846 23.4702C17.1649 24.0787 16.7347 24.703 16.3151 25.3272C16.3675 24.6977 16.4305 24.063 16.4987 23.4439ZM9.18589 8.16263C9.11769 7.97378 9.04425 7.77968 8.9813 7.59607C10.3977 9.30624 11.8246 11.0269 13.2147 12.6951C13.9334 13.5607 14.6521 14.421 15.3708 15.2918C15.5124 15.4544 15.6541 15.6275 15.7905 15.7954C15.9688 16.0105 16.1472 16.2361 16.3413 16.4512C16.2783 16.9915 16.2259 17.5371 16.1682 18.0616C16.1315 18.4289 16.0947 18.7961 16.0528 19.1685V19.1738C16.037 19.4098 16.0056 19.6459 15.9793 19.8767C15.9426 20.1967 15.8587 20.9207 15.8587 20.9207L15.8534 20.9574C15.759 22.0171 15.6436 23.0872 15.5334 24.1259C15.4862 24.5561 15.4442 24.9967 15.397 25.4374C15.3708 25.3587 15.3393 25.28 15.3131 25.2066C15.2344 24.9967 15.1557 24.7764 15.0823 24.5613L14.521 23.0033C12.7426 18.0564 10.9642 13.1148 9.18589 8.16263Z" fill="white"/>
</svg>
