<svg width="19" height="19" viewBox="0 0 19 19" fill="none" xmlns="http://www.w3.org/2000/svg">
<g clip-path="url(#clip0)">
<path d="M16.2173 16.2177C19.9272 12.5077 19.9272 6.49274 16.2173 2.78279C12.5073 -0.927153 6.49234 -0.927153 2.78239 2.78279C-0.927553 6.49274 -0.927553 12.5077 2.78239 16.2177C6.49234 19.9276 12.5073 19.9276 16.2173 16.2177Z" fill="#FFAC00"/>
<path d="M6.9139 4.65326C7.23973 4.73472 7.56556 4.81618 7.89139 4.89763C8.2274 4.97909 8.56341 5.06055 8.88924 5.14201C8.9707 5.16237 9.00125 5.15219 9.03179 5.06055C9.15398 4.56162 9.28635 4.06269 9.40854 3.56376C9.4289 3.48231 9.45945 3.45176 9.5409 3.48231C9.826 3.56376 10.1213 3.63504 10.4064 3.69613C10.4878 3.7165 10.498 3.74704 10.4777 3.81832C10.3555 4.30707 10.2333 4.79581 10.1111 5.28456C10.1009 5.3151 10.1009 5.35583 10.0907 5.39656C10.3453 5.45766 10.5897 5.51875 10.834 5.56966C10.8544 5.56966 10.9053 5.51875 10.9155 5.4882C11.0173 5.11146 11.109 4.72454 11.2006 4.34779C11.2311 4.23579 11.2617 4.1136 11.2821 4.0016C11.2922 3.95069 11.3228 3.93032 11.3839 3.94051C11.6893 4.02196 11.9948 4.09324 12.3003 4.1747C12.3206 4.18488 12.341 4.19506 12.3716 4.20524C12.2799 4.58199 12.1883 4.95873 12.0966 5.32529C12.0559 5.47802 12.0254 5.63075 11.9744 5.78349C11.9439 5.87513 11.9643 5.90567 12.0559 5.9464C12.3919 6.08895 12.7279 6.2315 13.0436 6.41478C13.3592 6.58788 13.624 6.82207 13.8174 7.13772C14.0923 7.58574 14.1127 8.05412 13.9905 8.55305C13.9091 8.87888 13.7767 9.18434 13.5323 9.42872C13.3389 9.612 13.1149 9.74436 12.8705 9.82582C12.8298 9.836 12.7992 9.84619 12.7483 9.86655C12.8705 9.94801 12.9927 10.0193 13.0945 10.1007C13.4509 10.3553 13.7054 10.6913 13.7971 11.1291C13.8683 11.4753 13.8378 11.8114 13.7462 12.1372C13.6341 12.5445 13.4712 12.9212 13.1963 13.247C12.8705 13.6238 12.453 13.8376 11.9643 13.9191C11.3432 14.0209 10.7322 13.9598 10.1213 13.8478C10.0195 13.8274 9.97874 13.8478 9.95837 13.9496C9.83619 14.4384 9.714 14.9271 9.59181 15.426C9.56127 15.5584 9.56127 15.5584 9.4289 15.5279C9.15398 15.4566 8.86888 15.3853 8.59396 15.3242C8.5125 15.3039 8.50232 15.2631 8.52268 15.1918C8.64487 14.6929 8.77724 14.1838 8.89942 13.6849C8.90961 13.634 8.91979 13.5932 8.8587 13.5729C8.61432 13.5118 8.36995 13.4507 8.11539 13.3794C8.04412 13.6543 7.98303 13.9191 7.91175 14.194C7.84048 14.4689 7.7692 14.7336 7.70811 15.0086C7.68774 15.0798 7.66738 15.09 7.5961 15.0697C7.30082 14.9882 7.00554 14.9169 6.71025 14.8457C6.62879 14.8253 6.61861 14.7947 6.63898 14.7133C6.77134 14.2144 6.89353 13.7052 7.01572 13.2063C7.0259 13.1656 7.03608 13.135 7.04626 13.0841C6.35387 12.911 5.66148 12.7379 4.94873 12.5547C4.99964 12.4426 5.04037 12.3306 5.0811 12.2288C5.1931 11.9641 5.31529 11.6993 5.42729 11.4346C5.45784 11.3532 5.49857 11.3328 5.59021 11.3633C5.81422 11.4244 6.02804 11.4753 6.25205 11.5263C6.47606 11.5772 6.65934 11.4753 6.72043 11.2411C7.10736 9.70364 7.4841 8.16612 7.87102 6.62861C7.93212 6.37405 7.77938 6.1195 7.51465 6.03804C7.24991 5.95658 6.98517 5.89549 6.72043 5.82421C6.65934 5.80385 6.61861 5.80385 6.63898 5.73257C6.73062 5.38638 6.81207 5.05037 6.89353 4.70417C6.89353 4.68381 6.90371 4.67363 6.9139 4.65326ZM8.45141 12.0659C8.48195 12.0761 8.50232 12.0863 8.52268 12.0965C9.01143 12.2186 9.50017 12.351 10.0093 12.4019C10.3555 12.4325 10.6915 12.4325 11.0275 12.3205C11.6079 12.127 11.8319 11.3939 11.5061 10.9153C11.3432 10.6811 11.1191 10.5182 10.8646 10.3858C10.3148 10.1007 9.70382 9.97855 9.10307 9.836C9.02161 9.81564 9.00125 9.84619 8.98088 9.91746C8.90961 10.2026 8.83833 10.4978 8.76706 10.7829C8.66523 11.2004 8.56341 11.6281 8.45141 12.0659ZM10.9766 9.00106C11.0479 8.99088 11.1802 8.9807 11.3024 8.95015C11.8726 8.81778 12.1679 8.15594 11.8828 7.65701C11.7301 7.37191 11.4653 7.21918 11.1904 7.08681C10.7831 6.89335 10.3453 6.80171 9.91764 6.69988C9.83619 6.67952 9.79546 6.69988 9.77509 6.78134C9.62236 7.40246 9.46963 8.02357 9.30671 8.64469C9.28635 8.71596 9.31689 8.73633 9.37799 8.75669C9.48999 8.78724 9.602 8.81778 9.714 8.83815C10.1009 8.92979 10.5082 9.01125 10.9766 9.00106Z" fill="white"/>
</g>
<defs>
<clipPath id="clip0">
<rect width="19" height="19" fill="white"/>
</clipPath>
</defs>
</svg>
