<svg width="19" height="19" viewBox="0 0 19 19" fill="none" xmlns="http://www.w3.org/2000/svg">
<path d="M9.5 19C14.7467 19 19 14.7467 19 9.5C19 4.25329 14.7467 0 9.5 0C4.25329 0 0 4.25329 0 9.5C0 14.7467 4.25329 19 9.5 19Z" fill="#26A17B"/>
<path d="M10.5126 10.3767V10.3751C10.447 10.3797 10.1079 10.3996 9.35339 10.3996C8.75009 10.3996 8.32702 10.3828 8.17734 10.3751V10.3767C5.85733 10.2743 4.12686 9.87112 4.12686 9.38696C4.12686 8.90432 5.85886 8.49958 8.17734 8.39725V9.97498C8.32855 9.98567 8.76384 10.0116 9.36408 10.0116C10.085 10.0116 10.4454 9.98109 10.5126 9.97498V8.39878C12.8281 8.50263 14.554 8.90585 14.554 9.38849C14.554 9.87112 12.8265 10.2743 10.5126 10.3782V10.3767ZM10.5126 8.23535V6.8241H13.7429V4.67209H4.94857V6.8241H8.17887V8.23535C5.55339 8.35601 3.58008 8.8753 3.58008 9.49846C3.58008 10.1216 5.55492 10.6409 8.17887 10.7631V15.287H10.5142V10.7631C13.1351 10.6424 15.1053 10.1231 15.1053 9.49998C15.1053 8.87836 13.1351 8.35754 10.5142 8.23688" fill="white"/>
</svg>
