<svg width="32" height="32" viewBox="0 0 32 32" fill="none" xmlns="http://www.w3.org/2000/svg">
<path d="M16 32C24.8366 32 32 24.8366 32 16C32 7.16344 24.8366 0 16 0C7.16344 0 0 7.16344 0 16C0 24.8366 7.16344 32 16 32Z" fill="#FF0114"/>
<path d="M26.5129 11.263C25.6053 10.6282 24.6348 9.95148 23.6853 9.28001C23.6643 9.26427 23.6433 9.24853 23.6171 9.23279C23.5122 9.15411 23.3915 9.07017 23.2447 9.02296L23.2342 9.01771C20.6951 8.40394 18.1142 7.77443 15.6171 7.16591C13.3509 6.61509 11.0899 6.06427 8.82368 5.51345C8.76597 5.49771 8.70827 5.48197 8.64532 5.46624C8.44073 5.40853 8.20466 5.34558 7.95286 5.37706C7.87941 5.38755 7.81646 5.41378 7.75876 5.4505L7.69581 5.50296C7.59614 5.59739 7.54368 5.71804 7.51745 5.78624L7.50171 5.8282V6.06952L7.5122 6.10624C8.94433 10.1194 10.4132 14.1902 11.8296 18.1298C12.9207 21.162 14.0538 24.3043 15.1607 27.3889C15.2289 27.5987 15.423 27.7351 15.6643 27.7561H15.7168C15.9424 27.7561 16.1417 27.6459 16.2414 27.4675L20.3961 21.4085C21.4086 19.9344 22.4211 18.4551 23.4335 16.981C23.8479 16.3777 24.2624 15.7692 24.6768 15.1659C25.3588 14.1692 26.0617 13.141 26.7594 12.139L26.7961 12.0866V12.0236C26.8119 11.84 26.8171 11.4623 26.5129 11.263V11.263ZM21.6447 13.4715C20.6689 13.9803 19.6722 14.5049 18.6702 15.0243C19.2525 14.4 19.8401 13.7705 20.4224 13.1462C21.1515 12.3594 21.9122 11.5462 22.6571 10.7489L22.6729 10.7331C22.7358 10.6492 22.8145 10.5705 22.8984 10.4866C22.9561 10.4289 23.0191 10.3712 23.0768 10.303C23.465 10.5705 23.8584 10.8433 24.2361 11.1108C24.5089 11.3049 24.787 11.499 25.0702 11.6931C23.9161 12.2807 22.762 12.8839 21.6447 13.4715ZM19.1371 13.2197C18.387 14.0328 17.6106 14.8669 16.8394 15.6905C15.3443 13.8754 13.8178 12.0341 12.3384 10.2557C11.667 9.44788 10.9902 8.63476 10.3188 7.82689L10.3135 7.82165C10.1614 7.64853 10.0145 7.45968 9.86761 7.28132C9.77318 7.16066 9.67351 7.04525 9.57384 6.9246C10.1824 7.08198 10.7961 7.22886 11.3994 7.3705C11.9292 7.4964 12.4801 7.62755 13.0204 7.76394C16.063 8.50361 19.1109 9.24329 22.1535 9.98296C21.1411 11.0636 20.1233 12.16 19.1371 13.2197ZM16.4984 23.4439C16.5561 22.8931 16.6191 22.3266 16.6715 21.7705C16.7188 21.3246 16.766 20.8682 16.8132 20.4328C16.8866 19.7351 16.9653 19.0112 17.0283 18.303L17.044 18.1771C17.0965 17.7259 17.1489 17.259 17.1804 16.7921C17.2381 16.7607 17.3011 16.7292 17.3692 16.703C17.4479 16.6662 17.5266 16.6348 17.6053 16.5875C18.8171 15.9528 20.0289 15.318 21.246 14.6885C22.4578 14.059 23.7011 13.4085 24.9338 12.7633C23.8112 14.3895 22.6833 16.0315 21.5922 17.6315C20.6532 19.0007 19.6879 20.4118 18.7279 21.802C18.3502 22.358 17.9568 22.9246 17.5843 23.4702C17.1647 24.0787 16.7345 24.703 16.3148 25.3272C16.3673 24.6977 16.4302 24.063 16.4984 23.4439V23.4439ZM9.18564 8.16263C9.11745 7.97378 9.044 7.77968 8.98105 7.59607C10.3974 9.30624 11.8243 11.0269 13.2145 12.6951C13.9332 13.5607 14.6519 14.421 15.3706 15.2918C15.5122 15.4544 15.6538 15.6275 15.7902 15.7954C15.9686 16.0105 16.147 16.2361 16.3411 16.4512C16.2781 16.9915 16.2256 17.5371 16.1679 18.0616C16.1312 18.4289 16.0945 18.7961 16.0525 19.1685V19.1738C16.0368 19.4098 16.0053 19.6459 15.9791 19.8767C15.9424 20.1967 15.8584 20.9207 15.8584 20.9207L15.8532 20.9574C15.7588 22.0171 15.6433 23.0872 15.5332 24.1259C15.486 24.5561 15.444 24.9967 15.3968 25.4374C15.3706 25.3587 15.3391 25.28 15.3129 25.2066C15.2342 24.9967 15.1555 24.7764 15.082 24.5613L14.5207 23.0033C12.7424 18.0564 10.964 13.1148 9.18564 8.16263Z" fill="white"/>
</svg>
